<svg width="32" height="32" viewBox="0 0 32 32" fill="none" xmlns="http://www.w3.org/2000/svg">
<path d="M11.5984 1.22192H20.9489C26.1269 1.22202 30.3239 5.41997 30.3239 10.5979V18.7258C30.3239 23.7492 26.3652 27.88 21.3464 28.093L8.24484 28.6487H2.22238V10.5979C2.22238 5.41991 6.42037 1.22192 11.5984 1.22192Z" stroke="#0EB64F" stroke-width="2.44364"/>
<path d="M24.0528 15.4277L18.3255 21.155C18.1462 21.3343 17.903 21.435 17.6494 21.435C17.3958 21.435 17.1526 21.3343 16.9733 21.155C16.7939 20.9756 16.6932 20.7324 16.6932 20.4788C16.6932 20.2252 16.7939 19.982 16.9733 19.8027L21.0706 15.7069H9.37746C9.12429 15.7069 8.8815 15.6063 8.70249 15.4273C8.52348 15.2483 8.42291 15.0055 8.42291 14.7524C8.42291 14.4992 8.52348 14.2564 8.70249 14.0774C8.8815 13.8984 9.12429 13.7978 9.37746 13.7978H21.0706L16.9748 9.69963C16.7955 9.5203 16.6948 9.27709 16.6948 9.02349C16.6948 8.76989 16.7955 8.52668 16.9748 8.34735C17.1542 8.16803 17.3974 8.06729 17.651 8.06729C17.9046 8.06729 18.1478 8.16803 18.3271 8.34735L24.0544 14.0746C24.1434 14.1634 24.214 14.2689 24.2621 14.3851C24.3102 14.5012 24.3349 14.6258 24.3347 14.7515C24.3346 14.8772 24.3096 15.0017 24.2612 15.1177C24.2128 15.2338 24.142 15.3391 24.0528 15.4277Z" fill="#0EB64F"/>
<path d="M16.487 9.02346C16.487 8.71476 16.6097 8.41869 16.8279 8.20041C17.0462 7.98213 17.3423 7.8595 17.651 7.8595C17.9597 7.8595 18.2558 7.98212 18.474 8.20041L24.2011 13.9275C24.3095 14.0356 24.3956 14.1641 24.4542 14.3055C24.5127 14.447 24.5428 14.5987 24.5426 14.7517C24.5425 14.9048 24.5119 15.0565 24.4529 15.1978C24.394 15.339 24.3079 15.4674 24.1993 15.5752L18.4724 21.3019C18.2541 21.5202 17.9581 21.6428 17.6494 21.6428C17.3407 21.6428 17.0446 21.5202 16.8263 21.3019C16.608 21.0836 16.4854 20.7875 16.4854 20.4788C16.4854 20.1701 16.608 19.8741 16.8263 19.6558L20.5688 15.9147H9.37746C9.06918 15.9147 8.7736 15.7922 8.55562 15.5742C8.33764 15.3562 8.21512 15.0606 8.21512 14.7524C8.21512 14.4441 8.33764 14.1485 8.55562 13.9305C8.7736 13.7125 9.06919 13.59 9.37746 13.59V13.7978C9.12429 13.7978 8.8815 13.8984 8.70249 14.0774L8.66987 14.1117C8.51133 14.2868 8.42291 14.515 8.42291 14.7524C8.42291 15.0055 8.52348 15.2483 8.70249 15.4273C8.8815 15.6063 9.12429 15.7069 9.37746 15.7069H21.0706L16.9733 19.8027C16.7939 19.982 16.6932 20.2252 16.6932 20.4788L16.6944 20.5263C16.7062 20.7626 16.8052 20.9869 16.9733 21.155C17.1526 21.3343 17.3958 21.435 17.6494 21.435C17.903 21.435 18.1462 21.3343 18.3255 21.155L24.0528 15.4277C24.1309 15.3502 24.1949 15.2598 24.2421 15.1606L24.2612 15.1177C24.3036 15.0162 24.3281 14.9082 24.3336 14.7986L24.3347 14.7515C24.3349 14.6258 24.3102 14.5012 24.2621 14.3851C24.22 14.2835 24.1607 14.1899 24.0869 14.1087L24.0544 14.0746L18.3271 8.34735C18.159 8.17926 17.9348 8.08025 17.6985 8.06851L17.651 8.06729C17.3974 8.06729 17.1542 8.16803 16.9748 8.34735L16.9422 8.38162C16.7833 8.55702 16.6948 8.78572 16.6948 9.02349L16.696 9.07094C16.7078 9.30726 16.8067 9.53152 16.9748 9.69963L21.0706 13.7978H9.37746V13.59H20.5692L16.8279 9.84651C16.6097 9.62822 16.487 9.33216 16.487 9.02346Z" fill="#0EB64F"/>
</svg>
