<svg preserveAspectRatio="none" width="100%" height="100%" overflow="visible" style="display: block;" viewBox="0 0 354.999 182.854" fill="none" xmlns="http://www.w3.org/2000/svg">
<g id="Group">
<path id="Vector" opacity="0.05" d="M35.5605 109.712H71.1215V146.283H35.5605V109.712ZM35.5605 36.5703H71.1215V73.1416H35.5605V36.5703Z" fill="var(--fill-0, #BE6547)"/>
<path id="Vector_2" opacity="0.02" d="M0 109.712H35.561V146.283H0V109.712ZM0 36.5702H35.561V73.1415H0V36.5702ZM35.561 146.283H71.122V182.854H35.561V146.283ZM35.561 0H71.122V36.5713L35.561 36.5702V0Z" fill="var(--fill-0, #BE6547)"/>
<path id="Vector_3" opacity="0.08" d="M71.121 109.712H106.682V146.283H71.121V109.712ZM71.121 36.5702H106.682V73.1415H71.121V36.5702Z" fill="var(--fill-0, #BE6547)"/>
<path id="Vector_4" opacity="0.1" d="M71.121 73.1415H106.682V109.713H71.121V73.1415Z" fill="var(--fill-0, #BE6547)"/>
<path id="Vector_5" opacity="0.08" d="M106.682 73.1415H142.243V109.713H106.682V73.1415ZM106.682 0H142.243V36.5713H106.682V0Z" fill="var(--fill-0, #BE6547)"/>
<path id="Vector_6" opacity="0.02" d="M142.242 109.712H177.803V146.283H142.242V109.712Z" fill="var(--fill-0, #BE6547)"/>
<path id="Vector_7" opacity="0.05" d="M142.242 36.5703H177.803V73.1416H142.242V36.5703Z" fill="var(--fill-0, #BE6547)"/>
<path id="Vector_8" opacity="0.02" d="M177.803 73.1416H213.364V109.713H177.803V73.1416Z" fill="var(--fill-0, #BE6547)"/>
<path id="Vector_9" opacity="0.08" d="M177.803 146.283H213.364V182.854H177.803V146.283Z" fill="var(--fill-0, #BE6547)"/>
<path id="Vector_10" opacity="0.02" d="M177.803 0H213.364V36.5713H177.803V0Z" fill="var(--fill-0, #BE6547)"/>
<path id="Vector_11" opacity="0.05" d="M213.363 146.283H248.924V182.854H213.363V146.283ZM318.428 145.244H353.989V181.815H318.428V145.244Z" fill="var(--fill-0, #BE6547)"/>
<path id="Vector_12" opacity="0.1" d="M213.363 109.919H248.924V146.491H213.363V109.919Z" fill="var(--fill-0, #BE6547)"/>
<path id="Vector_13" opacity="0.08" d="M213.363 36.5703H248.924V73.1416H213.363V36.5703Z" fill="var(--fill-0, #BE6547)"/>
<path id="Vector_14" opacity="0.02" d="M248.723 72.9336H284.284V109.505H248.723V72.9336Z" fill="var(--fill-0, #BE6547)"/>
<path id="Vector_15" opacity="0.08" d="M284.08 36.5703H319.641V73.1416H284.08V36.5703Z" fill="var(--fill-0, #BE6547)"/>
<path id="Vector_16" opacity="0.02" d="M284.08 0.206543H319.641V36.7778H284.08V0.206543Z" fill="var(--fill-0, #BE6547)"/>
<path id="Vector_17" opacity="0.08" d="M319.438 0.206543H354.999V36.7778H319.438V0.206543ZM284.08 109.296H319.641V145.867H284.08V109.296Z" fill="var(--fill-0, #BE6547)"/>
<path id="Vector_18" opacity="0.05" d="M0 73.1415H35.561V109.713H0V73.1415Z" fill="var(--fill-0, #BE6547)"/>
</g>
</svg>
