<svg preserveAspectRatio="none" width="100%" height="100%" overflow="visible" style="display: block;" viewBox="0 0 24 24" fill="none" xmlns="http://www.w3.org/2000/svg">
<g id="Icon">
<path id="Vector" d="M15.6942 1.15381C15.9245 1.07057 16.1803 1.08413 16.4021 1.19483L17.9993 1.99405L19.5978 1.19483C19.8767 1.05542 20.2079 1.07072 20.4731 1.23467C20.7384 1.39867 20.8997 1.68802 20.8997 1.99991V22.0003C20.8996 22.3121 20.7384 22.6016 20.4731 22.7655C20.241 22.909 19.9583 22.9383 19.7044 22.8499L19.5978 22.8054L17.9993 22.005L16.4021 22.8054C16.149 22.9316 15.8512 22.9316 15.5981 22.8054L13.9997 22.005L12.4024 22.8054L12.3052 22.8464C12.075 22.9294 11.8189 22.9162 11.5974 22.8054L10.0001 22.005L8.40283 22.8054C8.18126 22.9162 7.92521 22.9294 7.69502 22.8464L7.59775 22.8054L5.99932 22.005L4.40205 22.8054C4.12319 22.9445 3.7918 22.9294 3.52666 22.7655C3.26155 22.6016 3.10023 22.312 3.1001 22.0003V1.99991C3.1001 1.68813 3.26154 1.3987 3.52666 1.23467C3.79185 1.07078 4.12316 1.05559 4.40205 1.19483L5.99932 1.99405L7.59775 1.19483C7.8511 1.06822 8.14951 1.06817 8.40283 1.19483L10.0001 1.99405L11.5974 1.19483L11.9993 1.99991H12.0005L11.5974 1.19483C11.8507 1.06817 12.1491 1.06822 12.4024 1.19483L13.9997 1.99405L15.5981 1.19483L15.6942 1.15381ZM16.0001 3.00538L14.4028 3.8046C14.1813 3.91536 13.9252 3.92971 13.695 3.84678L13.5978 3.8046L11.9993 3.00538L10.4021 3.8046C10.1488 3.93107 9.85135 3.93107 9.59814 3.8046L7.99971 3.00538L6.40244 3.8046C6.14907 3.93128 5.85074 3.93128 5.59736 3.8046L4.9001 3.45538V20.5425L5.59736 20.1944L5.99932 20.9995H6.00049L5.59736 20.1944C5.85063 20.0678 6.14913 20.0679 6.40244 20.1944L7.99971 20.9937L9.59814 20.1944L9.69424 20.1534C9.92439 20.0702 10.1804 20.0838 10.4021 20.1944L11.9993 20.9937L13.5978 20.1944C13.8511 20.0679 14.1496 20.0678 14.4028 20.1944L16.0001 20.9937L17.5974 20.1944L17.9993 20.9995H18.0005L17.5974 20.1944C17.8506 20.0678 18.1491 20.0679 18.4024 20.1944L19.0997 20.5425V3.45538L18.4024 3.8046C18.1491 3.93128 17.8507 3.93128 17.5974 3.8046L16.0001 3.00538ZM15.1001 13.9999C15.1001 13.7082 14.9841 13.4281 14.7778 13.2218C14.5716 13.0156 14.2914 12.8995 13.9997 12.8995H12.9005V15.1003H13.9997C14.2914 15.1003 14.5716 14.9842 14.7778 14.778C14.9841 14.5717 15.1001 14.2916 15.1001 13.9999ZM16.9001 13.9999C16.9001 14.769 16.5943 15.5068 16.0505 16.0507C15.5067 16.5944 14.7687 16.9003 13.9997 16.9003H12.9005V17.5003C12.9003 17.997 12.4972 18.4001 12.0005 18.4003C11.5036 18.4003 11.1007 17.9972 11.1005 17.5003V16.9003H7.99971C7.50296 16.9001 7.09992 16.497 7.09971 16.0003C7.09971 15.5034 7.50283 15.1005 7.99971 15.1003H11.1005V12.8995H10.0001C9.23106 12.8995 8.49315 12.5948 7.94932 12.0511C7.40555 11.5073 7.09981 10.7693 7.09971 10.0003C7.09971 9.23126 7.40558 8.49335 7.94932 7.94952C8.49317 7.40566 9.23097 7.09991 10.0001 7.09991H11.1005V6.49991C11.1005 6.00285 11.5034 5.59991 12.0005 5.59991C12.4974 5.60012 12.9005 6.00298 12.9005 6.49991V7.09991H16.0001C16.4972 7.09991 16.9001 7.50285 16.9001 7.99991C16.9001 8.49696 16.4972 8.89991 16.0001 8.89991H12.9005V11.0995H13.9997C14.7687 11.0995 15.5067 11.4054 16.0505 11.9491C16.5943 12.493 16.9001 13.2308 16.9001 13.9999ZM8.89971 10.0003C8.89981 10.2917 9.01602 10.5711 9.22197 10.7773C9.42826 10.9835 9.70836 11.0995 10.0001 11.0995H11.1005V8.89991H10.0001C9.70836 8.89991 9.42826 9.01588 9.22197 9.22217C9.0158 9.42845 8.89971 9.70865 8.89971 10.0003Z" fill="var(--fill-0, #0C221F)"/>
</g>
</svg>
