<svg preserveAspectRatio="none" width="100%" height="100%" overflow="visible" style="display: block;" viewBox="0 0 24 24" fill="none" xmlns="http://www.w3.org/2000/svg">
<g id="Icon">
<path id="Vector" d="M15.9 21.6C15.9 17.3227 12.9542 14.1 9.6 14.1C6.24577 14.1 3.3 17.3227 3.3 21.6C3.3 22.0971 2.89706 22.5 2.4 22.5C1.90294 22.5 1.5 22.0971 1.5 21.6C1.5 16.5989 5.00133 12.3 9.6 12.3C14.1987 12.3 17.7 16.5989 17.7 21.6C17.7 22.0971 17.2971 22.5 16.8 22.5C16.3029 22.5 15.9 22.0971 15.9 21.6ZM12.3 6C12.3 4.50883 11.0912 3.3 9.6 3.3C8.10883 3.3 6.9 4.50883 6.9 6C6.9 7.49117 8.10883 8.7 9.6 8.7C11.0912 8.7 12.3 7.49117 12.3 6ZM22.5 12C22.5 12.4971 22.0971 12.9 21.6 12.9C21.1029 12.9 20.7 12.4971 20.7 12V9.37266L17.4363 12.6363C17.0849 12.9878 16.5151 12.9878 16.1637 12.6363C15.8122 12.2849 15.8122 11.7151 16.1637 11.3637L19.4273 8.1H16.8C16.3029 8.1 15.9 7.69706 15.9 7.2C15.9 6.70294 16.3029 6.3 16.8 6.3H21.6C22.0971 6.3 22.5 6.70294 22.5 7.2V12ZM14.1 6C14.1 8.48528 12.0853 10.5 9.6 10.5C7.11472 10.5 5.1 8.48528 5.1 6C5.1 3.51472 7.11472 1.5 9.6 1.5C12.0853 1.5 14.1 3.51472 14.1 6Z" fill="var(--fill-0, #0C221F)"/>
</g>
</svg>
