<svg preserveAspectRatio="none" width="100%" height="100%" overflow="visible" style="display: block;" viewBox="0 0 24 24" fill="none" xmlns="http://www.w3.org/2000/svg">
<g id="Icon">
<path id="Vector" d="M20.7 11.7H3.3V19.2001C3.3 20.0285 3.97157 20.7001 4.8 20.7001H19.2C20.0284 20.7001 20.7 20.0285 20.7 19.2001V11.7ZM15.9 6.00005V4.50005H8.1V6.00005C8.1 6.49711 7.69706 6.90005 7.2 6.90005C6.70294 6.90005 6.3 6.49711 6.3 6.00005V4.50005H4.8C3.97157 4.50005 3.3 5.17162 3.3 6.00005V9.90005H20.7V6.00005C20.7 5.17162 20.0284 4.50005 19.2 4.50005H17.7V6.00005C17.7 6.49711 17.2971 6.90005 16.8 6.90005C16.3029 6.90005 15.9 6.49711 15.9 6.00005ZM22.5 19.2001C22.5 21.0226 21.0225 22.5 19.2 22.5H4.8C2.97746 22.5 1.5 21.0226 1.5 19.2001V6.00005C1.5 4.17751 2.97746 2.70005 4.8 2.70005H6.3V1.20005C6.3 0.702993 6.70294 0.300049 7.2 0.300049C7.69706 0.300049 8.1 0.702993 8.1 1.20005V2.70005H15.9V1.20005C15.9 0.702993 16.3029 0.300049 16.8 0.300049C17.2971 0.300049 17.7 0.702993 17.7 1.20005V2.70005H19.2C21.0225 2.70005 22.5 4.17751 22.5 6.00005V19.2001Z" fill="var(--fill-0, #06B349)"/>
</g>
</svg>
