<svg preserveAspectRatio="none" width="100%" height="100%" overflow="visible" style="display: block;" viewBox="0 0 259 48" fill="none" xmlns="http://www.w3.org/2000/svg">
<g id="Image (wenext)" clip-path="url(#clip0_0_71)">
<path id="Vector" d="M43.37 11.7508C43.3698 6.8659 39.4061 2.90601 34.5161 2.90601H11.7629C6.87314 2.90621 2.90921 6.86602 2.90902 11.7508V43.7564H5.6362L10.2005 42.4208L10.5414 42.3206L34.8911 41.2894C39.631 41.0887 43.37 37.1914 43.37 32.4523V11.7508ZM46.279 32.4523C46.279 38.7485 41.3114 43.9267 35.0142 44.1936L11.0186 45.2095L1.66094 47.9472C0.882706 48.1743 0.103996 47.6424 0.00946944 46.8631L0 46.7042V11.7508C0.00020197 5.26109 5.26653 0.000202845 11.7629 0H34.5161C41.0126 0 46.2788 5.26097 46.279 11.7508V32.4523Z" fill="var(--fill-0, #0EB64F)"/>
<path id="Vector_2" d="M34.9237 23.35L26.2461 32.0184C25.9744 32.2898 25.606 32.4422 25.2218 32.4422C24.8376 32.4422 24.469 32.2898 24.1973 32.0184C23.9256 31.747 23.7731 31.3788 23.7731 30.995C23.7731 30.6112 23.9256 30.2431 24.1973 29.9717L30.4054 23.7725H12.6889C12.3053 23.7725 11.9375 23.6203 11.6663 23.3493C11.395 23.0784 11.2427 22.7109 11.2427 22.3277C11.2427 21.9446 11.395 21.577 11.6663 21.3062C11.9375 21.0352 12.3053 20.8829 12.6889 20.8829H30.4054L24.1997 14.6802C23.928 14.4088 23.7755 14.0407 23.7755 13.6568C23.7755 13.273 23.928 12.9049 24.1997 12.6335C24.4714 12.3621 24.84 12.2096 25.2242 12.2096C25.6084 12.2096 25.9768 12.3621 26.2485 12.6335L34.9261 21.3019C35.0609 21.4363 35.1679 21.5961 35.2408 21.772C35.3137 21.9477 35.3511 22.1361 35.3507 22.3264C35.3506 22.5166 35.3127 22.705 35.2394 22.8808C35.1662 23.0563 35.0588 23.2159 34.9237 23.35Z" fill="var(--fill-0, #0EB64F)"/>
<path id="Vector_3" d="M23.4608 13.6568C23.4608 13.1896 23.6465 12.7414 23.9772 12.4111C24.3079 12.0807 24.7565 11.8951 25.2242 11.8951C25.6919 11.8951 26.1405 12.0807 26.4712 12.4111L35.1484 21.0792C35.3125 21.2429 35.443 21.4373 35.5317 21.6514C35.6206 21.8655 35.666 22.0951 35.6658 22.3269C35.6655 22.5585 35.6192 22.788 35.5298 23.0019C35.4406 23.2157 35.3101 23.4099 35.1456 23.5731L26.4688 32.2407C26.1381 32.5711 25.6895 32.7567 25.2218 32.7567C24.7541 32.7567 24.3055 32.5711 23.9748 32.2407C23.644 31.9102 23.4582 31.4623 23.4582 30.995C23.4582 30.5277 23.644 30.0797 23.9748 29.7492L29.645 24.0869H12.6889C12.2218 24.0869 11.774 23.9016 11.4437 23.5716C11.1135 23.2418 10.9278 22.7943 10.9278 22.3277C10.9278 21.8611 11.1135 21.4138 11.4437 21.0838C11.774 20.754 12.2218 20.5685 12.6889 20.5685V20.8829C12.3053 20.8829 11.9375 21.0351 11.6663 21.3062L11.6168 21.3581C11.3766 21.6231 11.2427 21.9686 11.2427 22.3277C11.2427 22.7109 11.395 23.0784 11.6663 23.3493C11.9375 23.6203 12.3053 23.7725 12.6889 23.7725H30.4054L24.1973 29.9717C23.9256 30.2431 23.7731 30.6111 23.7731 30.995L23.7748 31.0668C23.7927 31.4246 23.9428 31.764 24.1973 32.0184C24.469 32.2898 24.8376 32.4422 25.2218 32.4422C25.606 32.4422 25.9744 32.2898 26.2461 32.0184L34.9237 23.3499C35.042 23.2325 35.1389 23.0957 35.2105 22.9457L35.2394 22.8807C35.3036 22.7271 35.3408 22.5636 35.3492 22.3978L35.3508 22.3263C35.3511 22.1361 35.3137 21.9477 35.2408 21.7719C35.177 21.618 35.0871 21.4766 34.9753 21.3535L34.9261 21.3019L26.2485 12.6335C25.994 12.3791 25.6542 12.2292 25.2962 12.2114L25.2242 12.2096C24.84 12.2096 24.4714 12.3621 24.1997 12.6335L24.1503 12.6853C23.9096 12.9508 23.7755 13.297 23.7755 13.6568L23.7774 13.7287C23.7951 14.0863 23.9452 14.4258 24.1997 14.6802L30.4054 20.8829H12.6889V20.5685H29.6457L23.9772 14.9025C23.6465 14.5721 23.4608 14.124 23.4608 13.6568Z" fill="var(--fill-0, #0EB64F)"/>
<path id="Vector_4" d="M258.439 11.9955V16.8013H241.621V11.9955H258.439ZM246.131 4.62665H252.125V33.7217C252.125 34.8831 252.299 35.7574 252.645 36.3449C252.993 36.9189 253.441 37.3126 253.988 37.5262C254.551 37.7265 255.158 37.8267 255.813 37.8267C256.293 37.8267 256.715 37.7933 257.075 37.7265C257.436 37.6598 257.717 37.6065 257.918 37.5663L259 42.5122C258.652 42.6458 258.158 42.7793 257.516 42.9129C256.875 43.0596 256.074 43.1397 255.112 43.153C253.535 43.1798 252.065 42.8995 250.702 42.312C249.338 41.7247 248.235 40.817 247.395 39.5889C246.553 38.3606 246.131 36.8187 246.131 34.9632V4.62665Z" fill="var(--fill-0, #08090A)"/>
<path id="Vector_5" d="M217.708 11.9955L224.503 23.97L231.357 11.9955H237.913L228.311 27.3741L237.994 42.7526H231.438L224.503 31.2588L217.587 42.7526H211.013L220.594 27.3741L211.133 11.9955H217.708Z" fill="var(--fill-0, #08090A)"/>
<path id="Vector_6" d="M193.835 43.3733C190.801 43.3733 188.188 42.7258 185.996 41.431C183.818 40.1227 182.135 38.2872 180.945 35.9244C179.77 33.5482 179.182 30.7647 179.182 27.5743C179.182 24.4238 179.77 21.6471 180.945 19.2442C182.135 16.8414 183.792 14.9658 185.916 13.6175C188.055 12.2692 190.554 11.5951 193.413 11.5951C195.15 11.5951 196.835 11.8821 198.464 12.4561C200.096 13.0301 201.559 13.9312 202.854 15.1593C204.15 16.3875 205.173 17.9827 205.92 19.945C206.67 21.8942 207.044 24.2637 207.044 27.0537V29.1763H182.569V24.6909H201.171C201.171 23.1156 200.85 21.7205 200.209 20.5058C199.567 19.2777 198.665 18.3098 197.502 17.6023C196.353 16.8948 195.003 16.541 193.454 16.541C191.77 16.541 190.3 16.9548 189.044 17.7825C187.801 18.5967 186.838 19.6647 186.158 20.9863C185.489 22.2946 185.154 23.7163 185.154 25.2514V28.7558C185.154 30.8115 185.516 32.5603 186.236 34.002C186.972 35.4437 187.995 36.5451 189.303 37.3061C190.614 38.0535 192.144 38.4274 193.895 38.4274C195.03 38.4274 196.066 38.2671 197.001 37.9467C197.936 37.6131 198.746 37.1191 199.427 36.4651C200.108 35.8109 200.629 35.0033 200.991 34.0421L206.663 35.0633C206.209 36.732 205.394 38.1938 204.217 39.4486C203.054 40.6901 201.591 41.658 199.828 42.3521C198.077 43.0328 196.078 43.3733 193.835 43.3733Z" fill="var(--fill-0, #08090A)"/>
<path id="Vector_7" d="M152.822 24.4906V42.7526H146.829V11.9955H152.582V17.0016H152.963C153.671 15.3729 154.78 14.0647 156.29 13.0768C157.813 12.089 159.731 11.5951 162.043 11.5951C164.141 11.5951 165.978 12.0356 167.555 12.9166C169.132 13.7844 170.355 15.0793 171.223 16.8013C172.093 18.5234 172.527 20.6527 172.527 23.189V42.7526H166.533V23.9098C166.533 21.6806 165.952 19.9385 164.789 18.6837C163.627 17.4154 162.03 16.7813 159.998 16.7813C158.609 16.7813 157.372 17.0817 156.29 17.6823C155.221 18.283 154.373 19.1642 153.744 20.3256C153.13 21.4737 152.822 22.8619 152.822 24.4906Z" fill="var(--fill-0, #08090A)"/>
<path id="Vector_8" d="M126.97 43.3733C123.936 43.3733 121.324 42.7258 119.132 41.431C116.954 40.1227 115.27 38.2872 114.081 35.9244C112.905 33.5482 112.317 30.7647 112.317 27.5743C112.317 24.4238 112.905 21.6471 114.081 19.2442C115.27 16.8414 116.927 14.9658 119.052 13.6175C121.19 12.2692 123.689 11.5951 126.549 11.5951C128.286 11.5951 129.97 11.8821 131.6 12.4561C133.23 13.0301 134.694 13.9312 135.99 15.1593C137.286 16.3875 138.308 17.9827 139.057 19.945C139.805 21.8942 140.179 24.2637 140.179 27.0537V29.1763H115.704V24.6909H134.306C134.306 23.1156 133.985 21.7205 133.344 20.5058C132.702 19.2777 131.8 18.3098 130.638 17.6023C129.489 16.8948 128.139 16.541 126.589 16.541C124.905 16.541 123.435 16.9548 122.179 17.7825C120.936 18.5967 119.974 19.6647 119.292 20.9863C118.624 22.2946 118.29 23.7163 118.29 25.2514V28.7558C118.29 30.8115 118.651 32.5603 119.373 34.002C120.108 35.4437 121.13 36.5451 122.439 37.3061C123.749 38.0535 125.279 38.4274 127.03 38.4274C128.166 38.4274 129.201 38.2671 130.137 37.9467C131.072 37.6131 131.881 37.1191 132.562 36.4651C133.244 35.8109 133.765 35.0033 134.126 34.0421L139.798 35.0633C139.344 36.732 138.529 38.1938 137.353 39.4486C136.19 40.6901 134.727 41.658 132.963 42.3521C131.212 43.0328 129.215 43.3733 126.97 43.3733Z" fill="var(--fill-0, #08090A)"/>
<path id="Vector_9" d="M74.7326 42.7526L65.6724 11.9955H71.8663L77.8998 34.5828H78.2005L84.2539 11.9955H90.4478L96.4612 34.4827H96.7619L102.755 11.9955H108.949L99.909 42.7526H93.7954L87.5413 20.5459H87.0803L80.8263 42.7526H74.7326Z" fill="var(--fill-0, #08090A)"/>
</g>
<defs>
<clipPath id="clip0_0_71">
<rect width="259" height="48" fill="white"/>
</clipPath>
</defs>
</svg>
