<svg preserveAspectRatio="none" width="100%" height="100%" overflow="visible" style="display: block;" viewBox="0 0 24 24" fill="none" xmlns="http://www.w3.org/2000/svg">
<g id="Icon">
<path id="Vector" d="M1.1001 12.0004C1.10031 5.98084 5.98011 1.10104 11.9997 1.10083C14.622 1.10083 17.0278 2.02889 18.9079 3.57114V2.00552C18.908 1.50855 19.3109 1.10552 19.8079 1.10552C20.3048 1.10562 20.7078 1.50862 20.7079 2.00552V5.75552C20.7079 5.8408 20.6914 5.92225 20.6692 6.00044C20.6658 6.01233 20.6614 6.02384 20.6575 6.0356C20.6425 6.08133 20.6243 6.12468 20.6024 6.16685C20.599 6.17352 20.5956 6.18017 20.5919 6.18677C20.4388 6.46473 20.1477 6.65544 19.8079 6.65552H16.0579C15.5609 6.65552 15.1579 6.25257 15.1579 5.75552C15.158 5.25855 15.5609 4.85552 16.0579 4.85552H17.6317C16.0819 3.63206 14.1269 2.90083 11.9997 2.90083C6.97423 2.90104 2.90031 6.97496 2.9001 12.0004C2.9001 17.0261 6.9741 21.101 11.9997 21.1012C12.4968 21.1012 12.8997 21.5042 12.8997 22.0012C12.8995 22.4981 12.4966 22.9012 11.9997 22.9012C5.97998 22.901 1.1001 18.0202 1.1001 12.0004ZM14.9575 20.6102C15.4278 20.4494 15.9392 20.7002 16.1001 21.1704C16.2609 21.6407 16.0103 22.1521 15.5399 22.3129L15.52 22.32C15.0498 22.4808 14.5383 22.23 14.3774 21.7598C14.2166 21.2895 14.4673 20.7781 14.9376 20.6172L14.9575 20.6102ZM17.4606 19.2825C17.8584 18.9845 18.4224 19.0652 18.7204 19.4629C19.0181 19.8607 18.9375 20.4247 18.5399 20.7227L18.52 20.7379C18.1222 21.036 17.5583 20.9541 17.2603 20.5563C16.9623 20.1585 17.043 19.5945 17.4407 19.2965L17.4606 19.2825ZM19.4517 17.2258C19.7379 16.8197 20.2993 16.722 20.7056 17.0079C21.1119 17.2942 21.2098 17.8566 20.9235 18.2629L20.9083 18.284C20.622 18.6902 20.0607 18.787 19.6544 18.5008C19.2481 18.2146 19.1503 17.6532 19.4364 17.2469L19.4517 17.2258ZM11.0997 7.00122C11.0997 6.50429 11.5028 6.10143 11.9997 6.10122C12.4968 6.10122 12.8997 6.50416 12.8997 7.00122V11.5575L15.6442 14.3723C15.9912 14.7282 15.9837 15.298 15.6278 15.645C15.2719 15.9918 14.7021 15.9844 14.3552 15.6286L11.3552 12.5524C11.1915 12.3844 11.0998 12.1588 11.0997 11.9243V7.00122ZM20.7032 14.67C20.8496 14.1951 21.3533 13.9284 21.8282 14.0747C22.3029 14.2211 22.5696 14.7248 22.4235 15.1997L22.4153 15.2243C22.2689 15.699 21.7652 15.9658 21.2903 15.8196C20.8156 15.6733 20.5491 15.1694 20.695 14.6946L20.7032 14.67ZM21.9829 10.92C22.4798 10.9115 22.8895 11.3079 22.8981 11.8047V11.8258C22.9065 12.3226 22.5113 12.7324 22.0146 12.7411C21.5176 12.7495 21.1078 12.3533 21.0993 11.8563L21.0981 11.8352C21.09 11.3385 21.4862 10.9285 21.9829 10.92ZM21.0571 7.65747C21.5228 7.48452 22.0404 7.72163 22.2138 8.18716L22.2231 8.2106C22.3964 8.67636 22.1591 9.19498 21.6935 9.36841C21.2276 9.54173 20.709 9.30458 20.5356 8.83872L20.5274 8.81528C20.3541 8.34942 20.5913 7.83079 21.0571 7.65747Z" fill="var(--fill-0, #0C221F)"/>
</g>
</svg>
