<svg preserveAspectRatio="none" width="100%" height="100%" overflow="visible" style="display: block;" viewBox="0 0 40 40" fill="none" xmlns="http://www.w3.org/2000/svg">
<g id="Image" clip-path="url(#clip0_0_23)">
<path id="Vector" d="M29.12 23.97C28.625 23.7217 26.19 22.525 25.7367 22.3583C25.2817 22.1933 24.9517 22.1117 24.62 22.6083C24.2917 23.1033 23.3417 24.2183 23.0533 24.5483C22.765 24.88 22.475 24.92 21.98 24.6733C21.485 24.4233 19.8883 23.9017 17.9967 22.215C16.525 20.9017 15.53 19.28 15.2417 18.7833C14.9533 18.2883 15.2117 18.02 15.4583 17.7733C15.6817 17.5517 15.955 17.195 16.2017 16.9067C16.45 16.6167 16.5317 16.41 16.6983 16.0783C16.8633 15.7483 16.7817 15.46 16.6567 15.2117C16.5317 14.9633 15.5417 12.525 15.13 11.5333C14.7267 10.5683 14.3183 10.7 14.015 10.6833C13.7267 10.67 13.3967 10.6667 13.065 10.6667C12.735 10.6667 12.1983 10.79 11.745 11.2867C11.2917 11.7817 10.0117 12.98 10.0117 15.4183C10.0117 17.855 11.7867 20.21 12.0333 20.5417C12.2817 20.8717 15.5267 25.875 20.495 28.02C21.6767 28.53 22.5983 28.835 23.3183 29.0617C24.505 29.44 25.585 29.3867 26.4367 29.2583C27.3883 29.1167 29.3667 28.06 29.78 26.9033C30.1933 25.7467 30.1933 24.755 30.0683 24.5483C29.945 24.3417 29.6167 24.2183 29.12 23.97ZM20.0833 36.3083H20.0767C17.1263 36.3086 14.2301 35.5153 11.6917 34.0117L11.09 33.655L4.855 35.2917L6.51833 29.2117L6.12667 28.5883C4.4774 25.9621 3.6049 22.9228 3.61 19.8217C3.61167 10.7383 11.0033 3.34833 20.09 3.34833C24.49 3.34833 28.6267 5.065 31.7367 8.17833C33.2711 9.70603 34.4874 11.5229 35.315 13.5237C36.1426 15.5246 36.5652 17.6697 36.5583 19.835C36.5533 28.9183 29.1633 36.3083 20.0833 36.3083ZM34.105 5.81333C32.2687 3.96487 30.0837 2.49923 27.6768 1.50133C25.2699 0.50344 22.6889 -0.00686156 20.0833 4.76837e-07C9.15833 4.76837e-07 0.266667 8.89167 0.261667 19.82C0.261667 23.3133 1.17333 26.7233 2.90833 29.7283L0.0950005 40L10.6033 37.2433C13.5093 38.8265 16.7657 39.6562 20.075 39.6567H20.0833C31.0067 39.6567 39.9 30.765 39.905 19.835C39.9131 17.2305 39.4046 14.6502 38.409 12.2434C37.4135 9.83661 35.9506 7.65112 34.105 5.81333Z" fill="var(--fill-0, #25D366)"/>
</g>
<defs>
<clipPath id="clip0_0_23">
<rect width="40" height="40" fill="white"/>
</clipPath>
</defs>
</svg>
