<svg width="417" height="156" viewBox="0 0 417 156" fill="none" xmlns="http://www.w3.org/2000/svg">
<path d="M38.126 0.5H111.874C132.653 0.5 149.499 17.374 149.5 38.1904V105.47C149.5 125.665 133.609 142.274 113.467 143.13L35.6924 146.432L35.6318 146.434L35.5732 146.451L5.24316 155.349C3.02658 155.997 0.805269 154.482 0.52832 152.258L0.5 151.774V38.1904C0.500636 17.6995 16.8247 1.02913 37.1553 0.512695L38.126 0.5ZM38.126 8.94434C22.0005 8.94508 8.92959 22.039 8.92871 38.1895V142.708H18.3398L18.4092 142.688L33.2021 138.348H33.2031L34.251 138.038L113.11 134.69C128.742 134.027 141.071 121.139 141.071 105.47V38.1895C141.07 22.0386 128 8.94434 111.874 8.94434H38.126ZM81.9912 40.0078C83.3743 40.008 84.7007 40.5583 85.6787 41.5381L113.804 69.709V69.71C114.289 70.1958 114.675 70.7727 114.938 71.4072C115.167 71.9628 115.299 72.5535 115.328 73.1533L115.334 73.4111C115.333 74.0976 115.196 74.7786 114.932 75.4131C114.668 76.0472 114.282 76.6237 113.796 77.1074L113.794 77.1084L85.6709 105.278C84.6928 106.258 83.3663 106.809 81.9834 106.809C80.6003 106.809 79.2731 106.258 78.2949 105.278C77.3162 104.298 76.7666 102.968 76.7666 101.582C76.7667 100.196 77.3163 98.867 78.2949 97.8867L96.6738 79.4844L97.5254 78.6309H41.3613C39.9805 78.6309 38.6564 78.0819 37.6797 77.1035C36.703 76.1254 36.1534 74.7981 36.1533 73.4141C36.1533 72.03 36.7028 70.7034 37.6797 69.7246C38.5377 68.8655 39.6634 68.3356 40.8604 68.2197V68.2422C39.6677 68.3578 38.5458 68.8842 37.6914 69.7402C37.3085 70.1237 36.9934 70.5619 36.75 71.0352C36.7326 71.0689 36.7149 71.1026 36.6982 71.1367C36.6754 71.1836 36.6532 71.2308 36.6318 71.2783C36.6202 71.3042 36.6089 71.3303 36.5977 71.3564C36.5769 71.4046 36.5574 71.4532 36.5381 71.502C36.5325 71.5159 36.5269 71.5299 36.5215 71.5439C36.4992 71.6019 36.4773 71.66 36.457 71.7188C36.4444 71.7553 36.4327 71.7922 36.4209 71.8291C36.4076 71.8707 36.3941 71.9122 36.3818 71.9541C36.3707 71.992 36.3608 72.0302 36.3506 72.0684C36.34 72.108 36.329 72.1476 36.3193 72.1875C36.3098 72.2267 36.3016 72.2662 36.293 72.3057C36.2848 72.3433 36.2769 72.3811 36.2695 72.4189C36.2645 72.4446 36.2605 72.4704 36.2559 72.4961C36.2454 72.5546 36.2341 72.613 36.2256 72.6719C36.2212 72.7023 36.2187 72.7331 36.2148 72.7637C36.2084 72.8147 36.2012 72.8657 36.1963 72.917C36.1805 73.0814 36.1729 73.2475 36.1729 73.4141C36.1729 74.7054 36.653 75.9475 37.5146 76.9004L37.6914 77.0869C38.6642 78.0616 39.9842 78.6094 41.3604 78.6094H97.5762L78.3076 97.9033C77.3333 98.8792 76.7862 100.202 76.7861 101.582C76.7861 102.134 76.8748 102.676 77.042 103.191C77.0505 103.218 77.0584 103.244 77.0674 103.271C77.0851 103.322 77.1047 103.374 77.124 103.425C77.132 103.446 77.1402 103.467 77.1484 103.488C77.1671 103.536 77.187 103.583 77.207 103.63C77.2204 103.661 77.234 103.693 77.248 103.724C77.2708 103.774 77.294 103.824 77.3184 103.874C77.3258 103.889 77.3332 103.905 77.3408 103.92C77.4073 104.052 77.479 104.182 77.5566 104.309C77.5663 104.324 77.5761 104.34 77.5859 104.355C77.6172 104.405 77.6496 104.454 77.6826 104.503C77.6946 104.521 77.7066 104.538 77.7188 104.556C77.7994 104.672 77.8843 104.785 77.9746 104.895C78.0792 105.022 78.1904 105.144 78.3076 105.262C79.2819 106.237 80.6036 106.786 81.9814 106.786C83.3595 106.786 84.681 106.237 85.6553 105.262L113.779 77.0898L113.78 77.0908C113.837 77.0342 113.892 76.9751 113.946 76.916C113.965 76.8956 113.983 76.8742 114.001 76.8535C114.038 76.8117 114.076 76.7704 114.111 76.7275C114.127 76.709 114.141 76.6896 114.156 76.6709C114.195 76.6227 114.233 76.5739 114.271 76.5244C114.279 76.5131 114.287 76.5017 114.296 76.4902C114.338 76.433 114.38 76.3754 114.42 76.3164C114.428 76.3047 114.436 76.293 114.443 76.2812C114.58 76.0756 114.703 75.8605 114.81 75.6367L114.813 75.6299L114.816 75.623L114.908 75.4111L114.913 75.4033C115.043 75.0913 115.141 74.767 115.208 74.4365C115.21 74.4281 115.211 74.4196 115.213 74.4111C115.262 74.1659 115.295 73.9175 115.308 73.667V73.6494L115.312 73.417L115.311 73.416C115.311 73.4139 115.312 73.4113 115.312 73.4092C115.312 72.8107 115.21 72.2174 115.01 71.6553L114.918 71.416L114.827 71.2109C114.823 71.2021 114.819 71.1934 114.814 71.1846C114.806 71.1665 114.797 71.1488 114.788 71.1309C114.761 71.0761 114.735 71.0215 114.706 70.9678C114.687 70.932 114.667 70.8967 114.647 70.8613C114.628 70.8266 114.608 70.7921 114.588 70.7578C114.575 70.7359 114.562 70.7141 114.549 70.6924C114.516 70.638 114.481 70.5844 114.446 70.5312C114.44 70.5218 114.434 70.5123 114.428 70.5029C114.33 70.3573 114.226 70.2163 114.113 70.0811L113.967 69.9121L113.966 69.9111L113.957 69.9014L113.796 69.7334L113.789 69.7266L85.6631 41.5537C85.5417 41.4321 85.4148 41.3171 85.2832 41.209C85.248 41.1801 85.2116 41.1529 85.1758 41.125C85.1529 41.1072 85.1306 41.0887 85.1074 41.0713C85.0699 41.0431 85.0314 41.0164 84.9932 40.9893C84.9565 40.9632 84.9201 40.9371 84.8828 40.9121C84.8629 40.8987 84.8424 40.8862 84.8223 40.873C84.7722 40.8404 84.722 40.8082 84.6709 40.7773C84.6528 40.7664 84.6345 40.7558 84.6162 40.7451C84.5693 40.7176 84.5223 40.6901 84.4746 40.6641C84.4391 40.6447 84.4032 40.626 84.3672 40.6074C84.3307 40.5886 84.2938 40.5707 84.2568 40.5527C84.2245 40.537 84.1919 40.5219 84.1592 40.5068C84.1196 40.4886 84.0801 40.4703 84.04 40.4531C84.0021 40.4368 83.9641 40.4207 83.9258 40.4053C83.8776 40.3859 83.829 40.3675 83.7803 40.3496C83.7591 40.3418 83.7381 40.3337 83.7168 40.3262C83.6609 40.3064 83.6044 40.2883 83.5479 40.2705C83.5237 40.2629 83.4999 40.2543 83.4756 40.2471C83.4232 40.2314 83.3703 40.2171 83.3174 40.2031C83.2881 40.1954 83.2589 40.1869 83.2295 40.1797C83.18 40.1675 83.13 40.1572 83.0801 40.1465C83.0489 40.1398 83.0177 40.1331 82.9863 40.127C82.9448 40.1188 82.9031 40.1116 82.8613 40.1045C82.8191 40.0973 82.7768 40.0901 82.7344 40.084C82.574 40.0608 82.412 40.0442 82.249 40.0361H82.2471C82.1615 40.0319 82.0753 40.0293 81.9893 40.0293C80.6114 40.0294 79.2896 40.5781 78.3154 41.5537C78.312 41.5572 78.3081 41.561 78.3047 41.5645L78.2764 41.5947C77.9025 41.9774 77.5938 42.4117 77.3564 42.8809C77.3424 42.9085 77.328 42.936 77.3145 42.9639C77.3069 42.9795 77.2994 42.9951 77.292 43.0107L77.2334 43.1396C77.2271 43.1539 77.221 43.1683 77.2148 43.1826C77.1935 43.2324 77.1731 43.2826 77.1533 43.333C77.1471 43.3489 77.1409 43.3649 77.1348 43.3809C77.1126 43.4391 77.0913 43.4976 77.0713 43.5566C77.0637 43.579 77.0571 43.6016 77.0498 43.624C77.0335 43.6743 77.0177 43.7246 77.0029 43.7754C76.9969 43.7962 76.9912 43.817 76.9854 43.8379C76.9472 43.9754 76.9136 44.1143 76.8867 44.2549C76.8829 44.2746 76.8805 44.2946 76.877 44.3145C76.8519 44.4543 76.831 44.5952 76.8174 44.7373C76.8093 44.8216 76.8038 44.9063 76.7998 44.9912L76.7939 45.2334L76.8008 45.4912C76.828 46.0415 76.9426 46.5794 77.1357 47.0869C77.1423 47.1043 77.1495 47.1214 77.1562 47.1387C77.1792 47.1971 77.2035 47.2549 77.2285 47.3125C77.2346 47.3265 77.2408 47.3405 77.2471 47.3545C77.2713 47.4089 77.2961 47.463 77.3223 47.5166C77.3349 47.5426 77.3472 47.5689 77.3604 47.5947C77.4218 47.7156 77.4877 47.8343 77.5586 47.9502C77.5735 47.9745 77.5892 47.9983 77.6045 48.0225C77.6323 48.0664 77.6603 48.1102 77.6895 48.1533C77.7045 48.1756 77.7199 48.1977 77.7354 48.2197C77.8134 48.3313 77.8954 48.4403 77.9824 48.5459C78.0087 48.5778 78.0364 48.6084 78.0635 48.6396C78.09 48.6703 78.1162 48.7013 78.1436 48.7314C78.1992 48.7929 78.2566 48.8531 78.3154 48.9121L97.5771 68.2178H41.8604L41.8613 68.1963H97.5273L96.6758 67.3438L78.3027 48.9287C77.3247 47.9488 76.7754 46.6195 76.7754 45.2334C76.7754 43.8473 77.3247 42.5179 78.3027 41.5381C79.2809 40.5583 80.608 40.0078 81.9912 40.0078ZM37.1729 73.4141C37.1729 73.2617 37.182 73.11 37.1982 72.96C37.2038 72.9087 37.2093 72.8575 37.2168 72.8066C37.22 72.7844 37.2239 72.7624 37.2275 72.7402C37.2342 72.6991 37.2411 72.658 37.249 72.6172C37.2572 72.575 37.266 72.533 37.2754 72.4912C37.2791 72.4746 37.2832 72.458 37.2871 72.4414C37.2975 72.3976 37.3085 72.354 37.3203 72.3105C37.3269 72.2864 37.3338 72.2623 37.3408 72.2383C37.3512 72.2027 37.3617 72.1671 37.373 72.1318C37.3822 72.1034 37.3916 72.0751 37.4014 72.0469C37.4152 72.0065 37.4302 71.9666 37.4453 71.9268C37.6285 71.4436 37.9006 70.9949 38.251 70.6055L38.3994 70.4473C39.1848 69.6603 40.2501 69.2178 41.3604 69.2178H99.9883L99.1367 68.3652L79.0225 48.2061C78.9476 48.1311 78.8771 48.0525 78.8086 47.9727C78.722 47.8717 78.6406 47.7672 78.5645 47.6592C78.5484 47.6364 78.5322 47.6139 78.5166 47.5908C78.5005 47.567 78.4853 47.5427 78.4697 47.5186C78.446 47.4819 78.4219 47.4455 78.3994 47.4082C78.3814 47.3783 78.3649 47.3477 78.3477 47.3174C78.337 47.2987 78.3257 47.2805 78.3154 47.2617C78.2929 47.2207 78.2711 47.1794 78.25 47.1377C78.2419 47.1217 78.2335 47.1059 78.2256 47.0898C78.2014 47.0405 78.1785 46.9906 78.1562 46.9404C78.1265 46.8732 78.0985 46.8051 78.0723 46.7363C78.0546 46.6901 78.0375 46.6436 78.0215 46.5967C77.9159 46.2875 77.8459 45.9654 77.8145 45.6367L77.8008 45.4424L77.7939 45.2334C77.7939 44.8306 77.8518 44.4336 77.9629 44.0537C77.9726 44.0204 77.9826 43.9872 77.9932 43.9541C78.0032 43.9227 78.0137 43.8915 78.0244 43.8604C78.0406 43.8134 78.0583 43.767 78.0762 43.7207C78.2595 43.2451 78.5285 42.8031 78.874 42.4189L79.0273 42.2549C79.812 41.4716 80.875 41.0312 81.9824 41.0293L82.209 41.0352C82.2891 41.0394 82.3688 41.0469 82.4482 41.0557C82.5002 41.0614 82.552 41.0676 82.6035 41.0752C82.6215 41.0779 82.6393 41.0811 82.6572 41.084C82.7013 41.0911 82.7453 41.0989 82.7891 41.1074C82.8168 41.1128 82.8444 41.119 82.8721 41.125C82.9109 41.1334 82.9498 41.141 82.9883 41.1504C83.019 41.1579 83.0495 41.1666 83.0801 41.1748C83.1107 41.1831 83.1414 41.1912 83.1719 41.2002C83.2082 41.2109 83.2442 41.2227 83.2803 41.2344C83.3056 41.2426 83.3312 41.2501 83.3564 41.2588C83.3926 41.2713 83.4281 41.2854 83.4639 41.2988C83.4936 41.31 83.5233 41.3212 83.5527 41.333C83.5848 41.3459 83.6167 41.3593 83.6484 41.373C83.6749 41.3845 83.7013 41.3962 83.7275 41.4082C83.7572 41.4217 83.787 41.435 83.8164 41.4492C83.8537 41.4673 83.8909 41.4857 83.9277 41.5049C83.9481 41.5155 83.968 41.5271 83.9883 41.5381C84.0221 41.5564 84.0555 41.5754 84.0889 41.5947C84.114 41.6093 84.1392 41.6236 84.1641 41.6387C84.1971 41.6587 84.2292 41.6802 84.2617 41.7012C84.2874 41.7178 84.3135 41.7338 84.3389 41.751C84.3679 41.7706 84.3963 41.7911 84.4248 41.8115C84.4502 41.8297 84.4759 41.8475 84.501 41.8662C84.5245 41.8838 84.5471 41.9027 84.5703 41.9209C84.7047 42.026 84.8342 42.1387 84.9561 42.2607L113.074 70.4248V70.4258L113.138 70.4922C113.457 70.8236 113.72 71.2046 113.915 71.6211C113.942 71.6796 113.968 71.739 113.993 71.7988C114.204 72.309 114.313 72.8567 114.312 73.4092C114.311 73.8726 114.233 74.332 114.083 74.7695C114.057 74.8453 114.029 74.9207 113.999 74.9951C113.997 75 113.995 75.0049 113.993 75.0098L113.989 75.0186C113.853 75.3463 113.675 75.6545 113.462 75.9365C113.439 75.9665 113.416 75.996 113.393 76.0254C113.376 76.0458 113.36 76.0668 113.344 76.0869C113.335 76.0977 113.326 76.1084 113.316 76.1191C113.24 76.2097 113.16 76.2979 113.075 76.3818L113.351 76.6592L113.074 76.3828L84.9482 104.555C84.1614 105.343 83.0939 105.786 81.9814 105.786C80.869 105.786 79.8014 105.343 79.0146 104.555C78.9835 104.524 78.9539 104.491 78.9238 104.459C78.8165 104.344 78.7151 104.225 78.6221 104.101C78.5996 104.07 78.5783 104.039 78.5566 104.009C78.541 103.987 78.5249 103.965 78.5098 103.942C78.4885 103.911 78.4686 103.879 78.4482 103.847C78.3648 103.716 78.288 103.581 78.2197 103.442C78.1994 103.401 78.1801 103.359 78.1611 103.317C77.9719 102.898 77.8511 102.449 77.8066 101.985L77.793 101.791L77.7861 101.582C77.7862 100.467 78.2281 99.3983 79.0146 98.6104L99.1367 78.4629L99.9893 77.6094H41.3604C40.2502 77.6094 39.1848 77.1677 38.3994 76.3809V76.3799C37.6143 75.5936 37.173 74.5268 37.1729 73.4141Z" fill="#F8F5EC" stroke="#E0DAC6"/>
<mask id="path-2-inside-1_502_4140" fill="white">
<path d="M416.28 62.509V68.7106H405.494H394.707V62.509H405.494H416.28ZM400.491 53H408.181V90.5452C408.181 92.0439 408.403 93.1721 408.848 93.9302C409.295 94.6709 409.869 95.179 410.571 95.4546C411.292 95.713 412.071 95.8424 412.912 95.8424C413.528 95.8424 414.069 95.7993 414.531 95.713C414.993 95.627 415.354 95.5582 415.612 95.5064L417 101.889C416.553 102.061 415.92 102.233 415.097 102.406C414.274 102.595 413.246 102.698 412.012 102.716C409.99 102.75 408.104 102.388 406.355 101.63C404.606 100.872 403.191 99.7011 402.113 98.1163C401.032 96.5313 400.491 94.5417 400.491 92.1472V53Z"/>
<path d="M364.031 62.509L372.749 77.9613L381.541 62.509H389.951L377.634 82.354L390.054 102.199H381.645L372.749 87.367L363.877 102.199H355.444L367.734 82.354L355.598 62.509H364.031Z"/>
<path d="M333.407 103C329.514 103 326.163 102.164 323.351 100.494C320.557 98.8053 318.399 96.4367 316.872 93.3877C315.364 90.3214 314.61 86.7295 314.61 82.6125C314.61 78.5469 315.364 74.9639 316.872 71.8631C318.399 68.7624 320.524 66.3421 323.248 64.6022C325.992 62.8623 329.198 61.9924 332.865 61.9924C335.094 61.9924 337.255 62.3627 339.345 63.1035C341.438 63.8442 343.315 65.007 344.976 66.5918C346.639 68.1767 347.951 70.2352 348.91 72.7674C349.872 75.2827 350.351 78.3403 350.351 81.9406V84.6797H327.935V78.8916H342.817C342.817 76.8588 342.406 75.0586 341.583 73.491C340.76 71.9062 339.603 70.6572 338.111 69.7443C336.637 68.8313 334.905 68.3748 332.918 68.3748C330.758 68.3748 328.872 68.9088 327.261 69.9768C325.666 71.0276 324.432 72.4057 323.558 74.1111C322.7 75.7994 322.271 77.634 322.271 79.615V84.1371C322.271 86.7899 322.735 89.0465 323.659 90.907C324.603 92.7674 325.915 94.1887 327.594 95.1707C329.275 96.1352 331.237 96.6177 333.484 96.6177C334.94 96.6177 336.269 96.4108 337.468 95.9974C338.668 95.5669 339.706 94.9294 340.58 94.0854C341.453 93.2412 342.122 92.1991 342.586 90.9587L349.863 92.2765C349.28 94.4298 348.234 96.3162 346.725 97.9355C345.233 99.5375 343.356 100.787 341.095 101.682C338.848 102.561 336.285 103 333.407 103Z"/>
<path d="M280.795 78.6332V102.199H273.107V62.5092H280.487V68.9691H280.975C281.884 66.8675 283.306 65.1793 285.244 63.9045C287.198 62.6297 289.658 61.9924 292.623 61.9924C295.315 61.9924 297.672 62.5608 299.694 63.6978C301.717 64.8175 303.286 66.4885 304.4 68.7107C305.515 70.9329 306.072 73.6806 306.072 76.9535V102.199H298.383V77.8837C298.383 75.007 297.637 72.759 296.146 71.1397C294.655 69.5032 292.606 68.6849 290.001 68.6849C288.218 68.6849 286.632 69.0725 285.244 69.8476C283.872 70.6227 282.784 71.7598 281.978 73.2585C281.189 74.74 280.795 76.5314 280.795 78.6332Z"/>
<path d="M247.632 103C243.741 103 240.389 102.164 237.578 100.494C234.784 98.8053 232.624 96.4367 231.098 93.3877C229.59 90.3214 228.835 86.7295 228.835 82.6125C228.835 78.5469 229.59 74.9639 231.098 71.8631C232.624 68.7624 234.749 66.3421 237.475 64.6022C240.218 62.8623 243.423 61.9924 247.092 61.9924C249.32 61.9924 251.48 62.3627 253.572 63.1035C255.663 63.8442 257.54 65.007 259.203 66.5918C260.866 68.1767 262.177 70.2352 263.137 72.7674C264.097 75.2827 264.577 78.3403 264.577 81.9406V84.6797H240.878V78.8916H257.043C257.043 76.8588 256.631 75.0586 255.809 73.491C254.986 71.9062 253.829 70.6572 252.337 69.7443C250.863 68.8313 249.132 68.3748 247.143 68.3748C244.983 68.3748 243.098 68.9088 241.486 69.9768C239.892 71.0276 238.658 72.4057 237.783 74.1111C236.926 75.7994 236.498 77.634 236.498 79.615V84.1371C236.498 86.7899 236.961 89.0465 237.886 90.907C238.829 92.7674 240.141 94.1887 241.821 95.1707C243.5 96.1352 245.463 96.6177 247.709 96.6177C249.166 96.6177 250.495 96.4108 251.694 95.9974C252.894 95.5669 253.932 94.9294 254.806 94.0854C255.68 93.2412 256.349 92.1991 256.811 90.9587L264.088 92.2765C263.505 94.4298 262.46 96.3162 260.951 97.9355C259.46 99.5375 257.583 100.787 255.32 101.682C253.074 102.561 250.512 103 247.632 103Z"/>
<path d="M180.622 102.199L169 62.509H176.945L184.685 91.6564H185.071L192.836 62.509H200.782L208.496 91.5272H208.881L216.57 62.509H224.515L212.918 102.199H205.076L197.053 73.5427H196.462L188.439 102.199H180.622Z"/>
</mask>
<path d="M416.28 62.509V68.7106H405.494H394.707V62.509H405.494H416.28ZM400.491 53H408.181V90.5452C408.181 92.0439 408.403 93.1721 408.848 93.9302C409.295 94.6709 409.869 95.179 410.571 95.4546C411.292 95.713 412.071 95.8424 412.912 95.8424C413.528 95.8424 414.069 95.7993 414.531 95.713C414.993 95.627 415.354 95.5582 415.612 95.5064L417 101.889C416.553 102.061 415.92 102.233 415.097 102.406C414.274 102.595 413.246 102.698 412.012 102.716C409.99 102.75 408.104 102.388 406.355 101.63C404.606 100.872 403.191 99.7011 402.113 98.1163C401.032 96.5313 400.491 94.5417 400.491 92.1472V53Z" fill="#F8F5EC"/>
<path d="M364.031 62.509L372.749 77.9613L381.541 62.509H389.951L377.634 82.354L390.054 102.199H381.645L372.749 87.367L363.877 102.199H355.444L367.734 82.354L355.598 62.509H364.031Z" fill="#F8F5EC"/>
<path d="M333.407 103C329.514 103 326.163 102.164 323.351 100.494C320.557 98.8053 318.399 96.4367 316.872 93.3877C315.364 90.3214 314.61 86.7295 314.61 82.6125C314.61 78.5469 315.364 74.9639 316.872 71.8631C318.399 68.7624 320.524 66.3421 323.248 64.6022C325.992 62.8623 329.198 61.9924 332.865 61.9924C335.094 61.9924 337.255 62.3627 339.345 63.1035C341.438 63.8442 343.315 65.007 344.976 66.5918C346.639 68.1767 347.951 70.2352 348.91 72.7674C349.872 75.2827 350.351 78.3403 350.351 81.9406V84.6797H327.935V78.8916H342.817C342.817 76.8588 342.406 75.0586 341.583 73.491C340.76 71.9062 339.603 70.6572 338.111 69.7443C336.637 68.8313 334.905 68.3748 332.918 68.3748C330.758 68.3748 328.872 68.9088 327.261 69.9768C325.666 71.0276 324.432 72.4057 323.558 74.1111C322.7 75.7994 322.271 77.634 322.271 79.615V84.1371C322.271 86.7899 322.735 89.0465 323.659 90.907C324.603 92.7674 325.915 94.1887 327.594 95.1707C329.275 96.1352 331.237 96.6177 333.484 96.6177C334.94 96.6177 336.269 96.4108 337.468 95.9974C338.668 95.5669 339.706 94.9294 340.58 94.0854C341.453 93.2412 342.122 92.1991 342.586 90.9587L349.863 92.2765C349.28 94.4298 348.234 96.3162 346.725 97.9355C345.233 99.5375 343.356 100.787 341.095 101.682C338.848 102.561 336.285 103 333.407 103Z" fill="#F8F5EC"/>
<path d="M280.795 78.6332V102.199H273.107V62.5092H280.487V68.9691H280.975C281.884 66.8675 283.306 65.1793 285.244 63.9045C287.198 62.6297 289.658 61.9924 292.623 61.9924C295.315 61.9924 297.672 62.5608 299.694 63.6978C301.717 64.8175 303.286 66.4885 304.4 68.7107C305.515 70.9329 306.072 73.6806 306.072 76.9535V102.199H298.383V77.8837C298.383 75.007 297.637 72.759 296.146 71.1397C294.655 69.5032 292.606 68.6849 290.001 68.6849C288.218 68.6849 286.632 69.0725 285.244 69.8476C283.872 70.6227 282.784 71.7598 281.978 73.2585C281.189 74.74 280.795 76.5314 280.795 78.6332Z" fill="#F8F5EC"/>
<path d="M247.632 103C243.741 103 240.389 102.164 237.578 100.494C234.784 98.8053 232.624 96.4367 231.098 93.3877C229.59 90.3214 228.835 86.7295 228.835 82.6125C228.835 78.5469 229.59 74.9639 231.098 71.8631C232.624 68.7624 234.749 66.3421 237.475 64.6022C240.218 62.8623 243.423 61.9924 247.092 61.9924C249.32 61.9924 251.48 62.3627 253.572 63.1035C255.663 63.8442 257.54 65.007 259.203 66.5918C260.866 68.1767 262.177 70.2352 263.137 72.7674C264.097 75.2827 264.577 78.3403 264.577 81.9406V84.6797H240.878V78.8916H257.043C257.043 76.8588 256.631 75.0586 255.809 73.491C254.986 71.9062 253.829 70.6572 252.337 69.7443C250.863 68.8313 249.132 68.3748 247.143 68.3748C244.983 68.3748 243.098 68.9088 241.486 69.9768C239.892 71.0276 238.658 72.4057 237.783 74.1111C236.926 75.7994 236.498 77.634 236.498 79.615V84.1371C236.498 86.7899 236.961 89.0465 237.886 90.907C238.829 92.7674 240.141 94.1887 241.821 95.1707C243.5 96.1352 245.463 96.6177 247.709 96.6177C249.166 96.6177 250.495 96.4108 251.694 95.9974C252.894 95.5669 253.932 94.9294 254.806 94.0854C255.68 93.2412 256.349 92.1991 256.811 90.9587L264.088 92.2765C263.505 94.4298 262.46 96.3162 260.951 97.9355C259.46 99.5375 257.583 100.787 255.32 101.682C253.074 102.561 250.512 103 247.632 103Z" fill="#F8F5EC"/>
<path d="M180.622 102.199L169 62.509H176.945L184.685 91.6564H185.071L192.836 62.509H200.782L208.496 91.5272H208.881L216.57 62.509H224.515L212.918 102.199H205.076L197.053 73.5427H196.462L188.439 102.199H180.622Z" fill="#F8F5EC"/>
<path d="M416.28 62.509V68.7106H405.494H394.707V62.509H405.494H416.28ZM400.491 53H408.181V90.5452C408.181 92.0439 408.403 93.1721 408.848 93.9302C409.295 94.6709 409.869 95.179 410.571 95.4546C411.292 95.713 412.071 95.8424 412.912 95.8424C413.528 95.8424 414.069 95.7993 414.531 95.713C414.993 95.627 415.354 95.5582 415.612 95.5064L417 101.889C416.553 102.061 415.92 102.233 415.097 102.406C414.274 102.595 413.246 102.698 412.012 102.716C409.99 102.75 408.104 102.388 406.355 101.63C404.606 100.872 403.191 99.7011 402.113 98.1163C401.032 96.5313 400.491 94.5417 400.491 92.1472V53Z" stroke="#E0DAC6" stroke-width="2" mask="url(#path-2-inside-1_502_4140)"/>
<path d="M364.031 62.509L372.749 77.9613L381.541 62.509H389.951L377.634 82.354L390.054 102.199H381.645L372.749 87.367L363.877 102.199H355.444L367.734 82.354L355.598 62.509H364.031Z" stroke="#E0DAC6" stroke-width="2" mask="url(#path-2-inside-1_502_4140)"/>
<path d="M333.407 103C329.514 103 326.163 102.164 323.351 100.494C320.557 98.8053 318.399 96.4367 316.872 93.3877C315.364 90.3214 314.61 86.7295 314.61 82.6125C314.61 78.5469 315.364 74.9639 316.872 71.8631C318.399 68.7624 320.524 66.3421 323.248 64.6022C325.992 62.8623 329.198 61.9924 332.865 61.9924C335.094 61.9924 337.255 62.3627 339.345 63.1035C341.438 63.8442 343.315 65.007 344.976 66.5918C346.639 68.1767 347.951 70.2352 348.91 72.7674C349.872 75.2827 350.351 78.3403 350.351 81.9406V84.6797H327.935V78.8916H342.817C342.817 76.8588 342.406 75.0586 341.583 73.491C340.76 71.9062 339.603 70.6572 338.111 69.7443C336.637 68.8313 334.905 68.3748 332.918 68.3748C330.758 68.3748 328.872 68.9088 327.261 69.9768C325.666 71.0276 324.432 72.4057 323.558 74.1111C322.7 75.7994 322.271 77.634 322.271 79.615V84.1371C322.271 86.7899 322.735 89.0465 323.659 90.907C324.603 92.7674 325.915 94.1887 327.594 95.1707C329.275 96.1352 331.237 96.6177 333.484 96.6177C334.94 96.6177 336.269 96.4108 337.468 95.9974C338.668 95.5669 339.706 94.9294 340.58 94.0854C341.453 93.2412 342.122 92.1991 342.586 90.9587L349.863 92.2765C349.28 94.4298 348.234 96.3162 346.725 97.9355C345.233 99.5375 343.356 100.787 341.095 101.682C338.848 102.561 336.285 103 333.407 103Z" stroke="#E0DAC6" stroke-width="2" mask="url(#path-2-inside-1_502_4140)"/>
<path d="M280.795 78.6332V102.199H273.107V62.5092H280.487V68.9691H280.975C281.884 66.8675 283.306 65.1793 285.244 63.9045C287.198 62.6297 289.658 61.9924 292.623 61.9924C295.315 61.9924 297.672 62.5608 299.694 63.6978C301.717 64.8175 303.286 66.4885 304.4 68.7107C305.515 70.9329 306.072 73.6806 306.072 76.9535V102.199H298.383V77.8837C298.383 75.007 297.637 72.759 296.146 71.1397C294.655 69.5032 292.606 68.6849 290.001 68.6849C288.218 68.6849 286.632 69.0725 285.244 69.8476C283.872 70.6227 282.784 71.7598 281.978 73.2585C281.189 74.74 280.795 76.5314 280.795 78.6332Z" stroke="#E0DAC6" stroke-width="2" mask="url(#path-2-inside-1_502_4140)"/>
<path d="M247.632 103C243.741 103 240.389 102.164 237.578 100.494C234.784 98.8053 232.624 96.4367 231.098 93.3877C229.59 90.3214 228.835 86.7295 228.835 82.6125C228.835 78.5469 229.59 74.9639 231.098 71.8631C232.624 68.7624 234.749 66.3421 237.475 64.6022C240.218 62.8623 243.423 61.9924 247.092 61.9924C249.32 61.9924 251.48 62.3627 253.572 63.1035C255.663 63.8442 257.54 65.007 259.203 66.5918C260.866 68.1767 262.177 70.2352 263.137 72.7674C264.097 75.2827 264.577 78.3403 264.577 81.9406V84.6797H240.878V78.8916H257.043C257.043 76.8588 256.631 75.0586 255.809 73.491C254.986 71.9062 253.829 70.6572 252.337 69.7443C250.863 68.8313 249.132 68.3748 247.143 68.3748C244.983 68.3748 243.098 68.9088 241.486 69.9768C239.892 71.0276 238.658 72.4057 237.783 74.1111C236.926 75.7994 236.498 77.634 236.498 79.615V84.1371C236.498 86.7899 236.961 89.0465 237.886 90.907C238.829 92.7674 240.141 94.1887 241.821 95.1707C243.5 96.1352 245.463 96.6177 247.709 96.6177C249.166 96.6177 250.495 96.4108 251.694 95.9974C252.894 95.5669 253.932 94.9294 254.806 94.0854C255.68 93.2412 256.349 92.1991 256.811 90.9587L264.088 92.2765C263.505 94.4298 262.46 96.3162 260.951 97.9355C259.46 99.5375 257.583 100.787 255.32 101.682C253.074 102.561 250.512 103 247.632 103Z" stroke="#E0DAC6" stroke-width="2" mask="url(#path-2-inside-1_502_4140)"/>
<path d="M180.622 102.199L169 62.509H176.945L184.685 91.6564H185.071L192.836 62.509H200.782L208.496 91.5272H208.881L216.57 62.509H224.515L212.918 102.199H205.076L197.053 73.5427H196.462L188.439 102.199H180.622Z" stroke="#E0DAC6" stroke-width="2" mask="url(#path-2-inside-1_502_4140)"/>
</svg>
